<?xml version="1.0" encoding="UTF-8"?>
<svg width="16px" height="16px" viewBox="0 0 16 16" version="1.1" xmlns="http://www.w3.org/2000/svg" xmlns:xlink="http://www.w3.org/1999/xlink">
    <title>sf icon</title>
    <g id="--个人设置" stroke="none" stroke-width="1" fill="none" fill-rule="evenodd">
        <g id="个性名片" transform="translate(-550.000000, -461.000000)" fill-rule="nonzero">
            <g id="Group-6" transform="translate(352.000000, 136.000000)">
                <g id="card" transform="translate(21.000000, 309.000000)">
                    <g id="sf-icon" transform="translate(177.000000, 16.000000)">
                        <rect id="Rectangle" fill="#00965E" x="0" y="0" width="16" height="16" rx="3.57142857"></rect>
                        <path d="M5.63714286,6.10857143 C6.39279589,6.09255421 7.13885005,6.28005459 7.79714286,6.65142857 L7.79714286,6.77714286 L7.26857143,7.92 C6.8629335,7.63426481 6.37902884,7.48061261 5.88285714,7.48 C5.22,7.48 5.08285714,7.81142857 5.08285714,8.08857143 C5.08285714,8.54 5.50857143,8.7 6.04857143,8.90285714 L6.41714286,9.04571429 C7.41714286,9.46285714 7.96,9.90285714 7.96,11.0457143 C7.96,12.8828571 6.33714286,13.1428571 5.36857143,13.1428571 C4.50046516,13.1611408 3.65066396,12.8919367 2.95142857,12.3771429 L2.95142857,12.2485714 L3.5,11.1514286 C3.93172456,11.5520705 4.48467525,11.7973796 5.07142857,11.8485714 C5.50285714,11.8485714 5.96571429,11.6714286 5.96571429,11.1714286 C5.96571429,10.7314286 5.57142857,10.5685714 5.07428571,10.3628571 C4.89714286,10.2914286 4.69714286,10.2085714 4.48571429,10.1028571 C3.66285714,9.69428571 3.11428571,9.20857143 3.11428571,8.16571429 C3.11428571,6.30857143 4.88,6.10857143 5.63714286,6.10857143 Z M11.5371429,2.83142857 C12.0555743,2.81764837 12.5709437,2.9150717 13.0485714,3.11714286 L13.0485714,3.27428571 L12.6514286,4.45714286 C12.4762389,4.35948399 12.28043,4.30465751 12.08,4.29714286 C11.6428571,4.29714286 11.4542857,4.60571429 11.4542857,5.33142857 L11.4542857,6.22285714 C11.4538434,6.24506316 11.4620379,6.2665739 11.4771429,6.28285714 L11.5050704,6.29972583 L11.5050704,6.29972583 L11.5371429,6.30571429 L12.6371429,6.30571429 L12.6371429,6.30571429 L12.6142857,7.75714286 L12.3637568,7.75680966 C12.1617076,7.75614327 11.9054144,7.75414411 11.6897709,7.74814661 L11.5371429,7.74285714 C11.5150373,7.74297216 11.493722,7.75109229 11.4771429,7.76571429 C11.4614802,7.78164536 11.4531927,7.80340008 11.4542857,7.82571429 C11.4628571,8.29285714 11.4702232,9.04727679 11.4762333,9.83871094 L11.4817857,10.6332143 C11.4885714,11.6842857 11.4928571,12.6528571 11.4942857,12.9457143 L9.45714286,12.9571429 L9.45737143,12.324 C9.45741714,12.2650057 9.457472,12.203168 9.45753783,12.138795 L9.45807909,11.7245979 C9.45866423,11.3581888 9.45961509,10.9438025 9.46116023,10.5199534 L9.46331429,10.0092571 C9.46742857,9.15874286 9.47428571,8.332 9.48571429,7.83714286 C9.48456058,7.81471903 9.47544229,7.79344301 9.46,7.77714286 L9.43207243,7.76027417 L9.43207243,7.76027417 L9.4,7.75428571 C9.11428571,7.75428571 8.85714286,7.76857143 8.70571429,7.76857143 L8.72857143,6.31714286 L9.4,6.31714286 C9.42210557,6.31702784 9.4434209,6.30890771 9.46,6.29428571 C9.47589772,6.27828893 9.48509435,6.25683012 9.48571429,6.23428571 C9.48571429,6.20571429 9.45714286,5.07714286 9.45714286,5.05714286 C9.45714286,3.21714286 10.6,2.83142857 11.5371429,2.83142857 Z" id="Combined-Shape" fill="#FFFFFF"></path>
                    </g>
                </g>
            </g>
        </g>
    </g>
</svg>
